<svg id="Layer_1" data-name="Layer 1" xmlns="http://www.w3.org/2000/svg" viewBox="0 0 342 396"><defs><style>.cls-1{fill:#f0f0f0;}.cls-2{fill:#e0e0e0;}.cls-3{fill:#f9a31a;}.cls-4{opacity:0.2;}.cls-12,.cls-22,.cls-23,.cls-5{fill:#fff;}.cls-6{fill:#4ac2ca;}.cls-7{fill:#37474f;}.cls-8{fill:#263238;}.cls-13,.cls-9{fill:#455a64;}.cls-10,.cls-12,.cls-13,.cls-15,.cls-18,.cls-21,.cls-22,.cls-23{isolation:isolate;}.cls-10{opacity:0.15;}.cls-11{fill:#27debf;}.cls-12{opacity:0.7;}.cls-13,.cls-18{opacity:0.8;}.cls-14{fill:#ebebeb;}.cls-15,.cls-20,.cls-22{opacity:0.3;}.cls-16{fill:#389193;}.cls-17,.cls-18{fill:#fafafa;}.cls-19{fill:#ffd79c;}.cls-21{opacity:0.1;}.cls-23{opacity:0.4;}.cls-24{fill:#ffa8a7;}.cls-25{fill:#f5f5f5;}.cls-26{fill:#f28f8f;}.cls-27{fill:#66787c;fill-rule:evenodd;}</style></defs><ellipse id="Floor" class="cls-1" cx="171.08" cy="253.84" rx="134.56" ry="77.69"/><path id="Shadow" class="cls-2" d="M214.14,274.32a7.31,7.31,0,0,0-1.08-3.78h0a6.62,6.62,0,0,0-.46-.71h0a7.64,7.64,0,0,0-.51-.62v0a6.88,6.88,0,0,0-.55-.53h0a5.13,5.13,0,0,0-.6-.44l-.34-.19-.16-.07-.18-.08-.26-.09h-.07a.54.54,0,0,1-.3-.06h0a2,2,0,0,0-1.11.17h0c-3.08,1.54-20.79,12.81-29,17.9l-4,2.45a.86.86,0,0,0-.29.28h0a1.62,1.62,0,0,0-.1.18v.12a.23.23,0,0,1-.05.16c0,.06,0,.07,0,.1l-.67.37-.6.32a23.31,23.31,0,0,0-4.61-3.41c-5.58-3.23-13-5-20.85-5s-15.26,1.78-20.85,5c-5.78,3.34-9,7.85-9,12.71s3.19,9.36,9,12.7c5.59,3.23,13,5,20.85,5s15.27-1.78,20.85-5c5.79-3.34,9-7.85,9-12.7a11.68,11.68,0,0,0-1.89-6.28l.53-.29a1.19,1.19,0,0,0,1.14.11h0c2.76-1.53,29.73-13,35.24-16h0A2.5,2.5,0,0,0,214.14,274.32Zm-47.68,33c-4.83,2.79-11.33,4.32-18.31,4.32s-13.47-1.53-18.3-4.32c-4.14-2.39-6.43-5.34-6.43-8.29s2.29-5.91,6.43-8.3c4.83-2.79,11.33-4.32,18.3-4.32s13.48,1.53,18.31,4.32c4.14,2.39,6.42,5.34,6.42,8.3s-2.28,5.87-6.42,8.26Z"/><path id="Shadow-2" class="cls-2" d="M218.26,206.05,190.9,190.22a5.57,5.57,0,0,0-5,0l-139,80.22c-1.39.81-1.39,2.11,0,2.91l27.35,15.82a5.51,5.51,0,0,0,5,0l52.07-30.06,8,4.65a17,17,0,0,0,15.35,0l23.86-13.68c4.24-2.45,4.24-6.41,0-8.86l-8-4.65L218.26,209C219.65,208.15,219.65,206.85,218.26,206.05Z"/><ellipse id="Shadow-3" class="cls-2" cx="264.14" cy="265.47" rx="26.82" ry="15.49"/><g id="Plants"><path class="cls-3" d="M279.38,248c0-3.63-.72-10.33,2.35-16.6,2.23-4.55,6.21-9,9.92-8.53,3.45.41,3.76,5.72.46,9.35s-7.5,8.66-8.41,16.68l-2.38,6Z"/><g class="cls-4"><path class="cls-3" d="M279.38,248c0-3.63-.72-10.33,2.35-16.6,2.23-4.55,6.21-9,9.92-8.53,3.45.41,3.76,5.72.46,9.35s-7.5,8.66-8.41,16.68l-2.38,6Z"/></g><path class="cls-5" d="M280.62,250.54a.26.26,0,0,0,.21-.26c-.42-10.32,2.94-18.89,9.71-24.78a.25.25,0,0,0,0-.35h0a.25.25,0,0,0-.36,0c-6.89,6-10.31,14.7-9.89,25.18a.25.25,0,0,0,.26.24h0Z"/><path class="cls-6" d="M278.72,261a12.83,12.83,0,0,0,6.39,1.77c3.88.1,5.32-1.95,5.32-1.95s-2-3.36-4.27-4.08a21.5,21.5,0,0,1,7,1.83s2.33-.28,2.78-4c0,0-1.66-2-6.44-2.48a15.41,15.41,0,0,1,6.91-.59c.32.08,1-4.68,1.1-6.85s-.74-2-2.44-2.25-7.36.26-8.27,1.3-1,4.22-1,4.22a6.28,6.28,0,0,1-1.2-3.22,6,6,0,0,0-3.49.55c-1.77.9-2.34,1.61-2.42,3a13.38,13.38,0,0,0,.34,5,10.44,10.44,0,0,1-1.53-4.85,24.51,24.51,0,0,0-1.64,3.43C275,253.76,275.94,258.54,278.72,261Z"/><path class="cls-5" d="M278.79,261.21a.23.23,0,0,0,.17-.16c2.21-6.78,12.62-15.71,16.6-17.05a.25.25,0,0,0,.15-.32.24.24,0,0,0-.29-.17h0c-4.05,1.36-14.65,10.46-16.91,17.37a.26.26,0,0,0,.17.32A.33.33,0,0,0,278.79,261.21Z"/></g><g id="Device"><g id="Monitor"><path class="cls-7" d="M154.73,261.46l20.56-11.89c2.12-1.22,3.18-2.83,3.18-4.43v-2.86l-19.35-11a4.53,4.53,0,0,1-2-3.54V202.41l-35.91,20.75v25.35a4.53,4.53,0,0,0,2,3.54l16.15,9.41A17,17,0,0,0,154.73,261.46Z"/><path class="cls-8" d="M129.8,253v2.85l-6.58-3.79a4.55,4.55,0,0,1-2-3.55V223.16l6.84-3.95c.14,1.74.29,3.54.43,5.28l-4.79,2.78v19.8a4.52,4.52,0,0,0,2,3.55Z"/><path class="cls-9" d="M123.66,247.08a4.53,4.53,0,0,0,2,3.54l13.68,8a17,17,0,0,0,15.35,0l20.57-11.89c4.24-2.44,4.24-6.41,0-8.86l-13.69-8a4.53,4.53,0,0,1-2-3.54V206.52l-35.9,20.75Z"/><path class="cls-10" d="M165.78,232.28h0l-4.17-2.41a4.53,4.53,0,0,1-2-3.54V206.52L123.7,227.27v19.81a4.53,4.53,0,0,0,2,3.54l4.1,2.37Z"/><path class="cls-7" d="M178.48,242.28v2.86c0,1.61-1.07,3.2-3.18,4.43l-20.56,11.88a15.49,15.49,0,0,1-7.33,1.82v-2.85a15.48,15.48,0,0,0,7.33-1.81l20.56-11.9C177.41,245.5,178.48,243.89,178.48,242.28Z"/><path class="cls-9" d="M66,274.42a5.45,5.45,0,0,0,5-.09l138.87-80.17a5.66,5.66,0,0,0,2.55-4.43V68.18A4.8,4.8,0,0,0,205,63.93L66.16,144.1a5.67,5.67,0,0,0-2.56,4.43V270.08A5.46,5.46,0,0,0,66,274.42Z"/><path class="cls-7" d="M71,274.33l138.87-80.18a5.66,5.66,0,0,0,2.56-4.43V68.17c0-1.63-1.15-2.29-2.56-1.47L71,146.87a5.67,5.67,0,0,0-2.56,4.43V272.85C68.4,274.48,69.55,275.14,71,274.33Z"/><path class="cls-11" d="M73.2,256.79V152.89a3.39,3.39,0,0,1,1.53-2.65L206.05,74.42c.85-.49,1.53-.09,1.53.89v103.9a3.39,3.39,0,0,1-1.54,2.66L74.73,257.68C73.89,258.17,73.2,257.77,73.2,256.79Z"/><path class="cls-12" d="M73.2,256.79V152.89a3.39,3.39,0,0,1,1.53-2.65L206.05,74.42c.85-.49,1.53-.09,1.53.89v103.9a3.39,3.39,0,0,1-1.54,2.66L74.73,257.68C73.89,258.17,73.2,257.77,73.2,256.79Z"/><path class="cls-11" d="M140.13,229.32a1.39,1.39,0,0,1-.77-.2,2,2,0,0,1-.85-1.8,5.52,5.52,0,0,1,2.55-4.41h0a2,2,0,0,1,2-.17,2,2,0,0,1,.84,1.8,5.53,5.53,0,0,1-2.54,4.41A2.43,2.43,0,0,1,140.13,229.32Zm2.14-6.2a2,2,0,0,0-.92.29h0a5,5,0,0,0-2.26,3.91,1.18,1.18,0,0,0,2,1.13,5,5,0,0,0,2.25-3.91,1.43,1.43,0,0,0-.55-1.3,1,1,0,0,0-.52-.12Z"/></g></g><g id="Window"><path class="cls-1" d="M230.39,94,95.15,172v99.68a1.73,1.73,0,0,0,2.59,1.5l2.41-1.39L227.87,198.1a5.57,5.57,0,0,0,2.52-4.36Z"/><path class="cls-2" d="M229.81,95v98.76a5,5,0,0,1-2.23,3.86L99.86,271.25l-2.41,1.39a1.13,1.13,0,0,1-.57.15,1.14,1.14,0,0,1-1.15-1.15V172.3L229.81,95m.58-1L95.15,172v99.68a1.72,1.72,0,0,0,1.73,1.73h0a1.73,1.73,0,0,0,.86-.23l2.41-1.39L227.87,198.1a5.57,5.57,0,0,0,2.52-4.36Z"/><polygon class="cls-13" points="227.19 92.12 91.94 170.11 95.15 171.96 230.39 93.97 227.19 92.12"/><path class="cls-14" d="M96.06,273.16a1.72,1.72,0,0,1-.91-1.52V172l-3.22-1.85v99.12a2.29,2.29,0,0,0,0,.37,2.61,2.61,0,0,0,1.31,1.95l2.66,1.54.13.07Z"/><path class="cls-11" d="M91.93,170.15v-6.72a2.82,2.82,0,0,1,1.26-2.19L225.93,84.72a2.71,2.71,0,0,1,2.51,0l.7.4a2.8,2.8,0,0,1,1.25,2.18V94L95.15,172Z"/><path class="cls-15" d="M91.93,170.15v-6.72a2.82,2.82,0,0,1,1.26-2.19L225.93,84.72a2.71,2.71,0,0,1,2.51,0l.7.4a2.8,2.8,0,0,1,1.25,2.18V94L95.15,172Z"/><path class="cls-11" d="M95.15,165.28a2.76,2.76,0,0,1,1.26-2.18L229.14,86.57c.69-.41,1.25-.08,1.25.72V94L95.15,172Z"/><path class="cls-6" d="M95.15,165.28a2.76,2.76,0,0,1,1.26-2.18L229.14,86.57c.69-.41,1.25-.08,1.25.72V94L95.15,172Z"/><path class="cls-11" d="M95.52,164a2.46,2.46,0,0,0-.37,1.24V172l-3.21-1.86v-6.73a2.66,2.66,0,0,1,.36-1.23Z"/><path class="cls-16" d="M95.52,164a2.46,2.46,0,0,0-.37,1.24V172l-3.21-1.86v-6.73a2.66,2.66,0,0,1,.36-1.23Z"/><path class="cls-17" d="M224.49,93.72c0,.75.53,1.06,1.18.68a2.58,2.58,0,0,0,1.18-2c0-.76-.53-1.06-1.18-.68A2.58,2.58,0,0,0,224.49,93.72Z"/><path class="cls-17" d="M219.77,96.45c0,.75.53,1,1.18.68a2.64,2.64,0,0,0,1.18-2c0-.75-.53-1-1.18-.68A2.64,2.64,0,0,0,219.77,96.45Z"/><path class="cls-17" d="M215.05,99.17c0,.75.53,1.06,1.18.68a2.58,2.58,0,0,0,1.18-2c0-.75-.53-1.06-1.18-.68A2.58,2.58,0,0,0,215.05,99.17Z"/><path class="cls-17" d="M95.15,172v99.63a1.73,1.73,0,0,0,2.59,1.5l2.41-1.39,29.55-17V152.08Z"/><polygon class="cls-17" points="132.06 153.77 132.06 250.54 227.56 195.4 227.56 98.63 132.06 153.77"/><path class="cls-11" d="M121.79,163.78l-22,12.73a1.62,1.62,0,0,0-.74,1.28v2.3c0,.47.33.66.74.42l22-12.73a1.62,1.62,0,0,0,.74-1.28v-2.3C122.53,163.73,122.2,163.54,121.79,163.78Z"/><path class="cls-18" d="M121.79,163.78l-22,12.73a1.62,1.62,0,0,0-.74,1.28v2.3c0,.47.33.66.74.42l22-12.73a1.62,1.62,0,0,0,.74-1.28v-2.3C122.53,163.73,122.2,163.54,121.79,163.78Z"/><path class="cls-9" d="M126.7,164.69l-.65-.63a2.89,2.89,0,0,0,.21-1,1.21,1.21,0,0,0-.49-1.11.8.8,0,0,0-.79,0,2.6,2.6,0,0,0-1,2.11,1.23,1.23,0,0,0,.49,1.12.67.67,0,0,0,.34.09,1,1,0,0,0,.45-.12,1.82,1.82,0,0,0,.57-.6l.54.52a.28.28,0,0,0,.17.07.27.27,0,0,0,.19-.08.25.25,0,0,0,0-.35Zm-1.72,0a.28.28,0,0,1-.28,0,.82.82,0,0,1-.23-.68,2.1,2.1,0,0,1,.77-1.66.39.39,0,0,1,.18-.06h.1a.8.8,0,0,1,.23.67,2.1,2.1,0,0,1-.75,1.73Z"/><path class="cls-9" d="M99.55,187.25l-.49.28H99v-1.34a.17.17,0,0,1,.06-.1l.49-.28h0v1.34A.17.17,0,0,1,99.55,187.25Z"/><path class="cls-9" d="M100.29,186.82l-.49.29m-.06,0v-1.34a.11.11,0,0,1,.06-.1l.49-.29h0v1.34a.17.17,0,0,1,0,.1Z"/><path class="cls-9" d="M101,186.39l-.49.29h-.06V185.3a.13.13,0,0,1,.06-.1l.49-.29h0v1.34S101.06,186.38,101,186.39Z"/><path class="cls-9" d="M99.55,189l-.49.29H99V188a.13.13,0,0,1,.06-.1l.49-.29h0v1.34S99.58,189,99.55,189Z"/><path class="cls-9" d="M100.29,188.55l-.49.28h-.06v-1.34a.13.13,0,0,1,.06-.1l.49-.28h0v1.34A.17.17,0,0,1,100.29,188.55Z"/><path class="cls-9" d="M101,188.12l-.49.28h-.06V187a.14.14,0,0,1,.06-.11l.49-.28h0V188A.13.13,0,0,1,101,188.12Z"/><path class="cls-9" d="M99.63,193.53l-.61-.37v-.11l.61-1.07h.07v1.45C99.7,193.49,99.66,193.55,99.63,193.53Z"/><path class="cls-9" d="M99.37,192.71l.8-.46v.38l-.8.47c-.07,0-.12,0-.12-.12A.36.36,0,0,1,99.37,192.71Z"/><polygon class="cls-9" points="100.32 192.16 100.6 192.01 100.6 192.39 100.32 192.55 100.32 192.16"/><path class="cls-9" d="M101.33,191.77v1.4a.36.36,0,0,1-.12.27c-.07,0-.12,0-.12-.12v-1.21l-.34.19v-.38l.46-.27C101.28,191.61,101.33,191.67,101.33,191.77Z"/><path class="cls-9" d="M99.86,196.67a2.65,2.65,0,0,0-.84,2.27c.1.73.53.7.58,1q0,.06.06,0l.54-.3a.17.17,0,0,0,0-.1,6.52,6.52,0,0,0,.62-2.07C100.87,196.7,100.41,196.3,99.86,196.67Z"/><path class="cls-9" d="M100.19,200.58l-.52.3H99.6v-.48a.14.14,0,0,1,.07-.12l.52-.3h.06v.48A.14.14,0,0,1,100.19,200.58Z"/><path class="cls-9" d="M100,185.37a3.22,3.22,0,0,0-1,2,2.14,2.14,0,0,0,.14,1.09l-.17.92c0,.07,0,.11.07.06l.52-.57a.79.79,0,0,0,.77-.23,3.17,3.17,0,0,0,1-2C101.44,185.37,100.78,184.72,100,185.37Zm.19,3c-.48.28-.88-.1-.88-.85a2.33,2.33,0,0,1,.88-1.86c.49-.28.88.1.88.84a2.34,2.34,0,0,1-.89,1.87Z"/><path class="cls-9" d="M100,203a3.17,3.17,0,0,0-1,2,2.18,2.18,0,0,0,.14,1.1L99,207c0,.08,0,.12.07.07l.52-.57a.84.84,0,0,0,.77-.23,3.22,3.22,0,0,0,1-2C101.44,203,100.78,202.36,100,203Zm.19,3c-.48.28-.88-.1-.88-.84a2.33,2.33,0,0,1,.88-1.86c.49-.28.88.09.88.84a2.31,2.31,0,0,1-.89,1.86Z"/><path class="cls-9" d="M100.73,209.47a1.24,1.24,0,0,1-.46,1c-.26.15-.46,0-.46-.45a1.24,1.24,0,0,1,.46-1C100.53,208.87,100.73,209.07,100.73,209.47Z"/><path class="cls-9" d="M101.53,209.61a.8.8,0,0,1-.31.65c-.17.1-.31,0-.31-.29a.81.81,0,0,1,.31-.66C101.39,209.21,101.53,209.35,101.53,209.61Z"/><path class="cls-9" d="M100.82,212.28l-1.1.64v-1.39a1,1,0,0,1,.4-.76l.3-.17c.22-.13.4,0,.4.3Z"/><path class="cls-9" d="M101.27,210.42l-.3.18v1.6l.57-.33v-1.24C101.54,210.43,101.42,210.34,101.27,210.42Z"/><path class="cls-9" d="M99,211.07c0,.26.14.39.31.29a.83.83,0,0,0,.31-.65c0-.26-.14-.4-.31-.3A.81.81,0,0,0,99,211.07Z"/><path class="cls-9" d="M99.27,211.58l.3-.17V213l-.57.33v-1.24A.63.63,0,0,1,99.27,211.58Z"/><path class="cls-2" d="M104.36,184.11l12.91-7.45c.35-.2.63-.06.63.32a1.35,1.35,0,0,1-.63,1l-12.91,7.45c-.34.21-.63.06-.63-.31A1.38,1.38,0,0,1,104.36,184.11Z"/><path class="cls-2" d="M104.36,190.19l12.91-7.45c.35-.21.63-.06.63.31a1.38,1.38,0,0,1-.63,1l-12.91,7.45c-.34.2-.63.06-.63-.32A1.36,1.36,0,0,1,104.36,190.19Z"/><path class="cls-2" d="M104.36,196.26l12.91-7.45c.35-.2.63-.06.63.32a1.35,1.35,0,0,1-.63,1l-12.91,7.45c-.34.21-.63.06-.63-.31A1.38,1.38,0,0,1,104.36,196.26Z"/><path class="cls-2" d="M104.36,202.34l12.91-7.45c.35-.21.63-.06.63.31a1.34,1.34,0,0,1-.63,1.05l-12.91,7.45c-.34.2-.63.06-.63-.32A1.35,1.35,0,0,1,104.36,202.34Z"/><path class="cls-2" d="M104.36,208.41,117.27,201c.35-.2.63-.06.63.32a1.35,1.35,0,0,1-.63,1l-12.91,7.45c-.34.2-.63.06-.63-.31A1.37,1.37,0,0,1,104.36,208.41Z"/><path class="cls-9" d="M106.72,213.37l12.91-7.45c.35-.2.63-.06.63.32a1.35,1.35,0,0,1-.63,1l-12.91,7.45c-.34.21-.62.06-.62-.31A1.36,1.36,0,0,1,106.72,213.37Z"/><path class="cls-2" d="M106.72,217.48,119.63,210c.35-.2.63-.05.63.32a1.38,1.38,0,0,1-.63,1l-12.91,7.45c-.34.2-.62.06-.62-.32A1.34,1.34,0,0,1,106.72,217.48Z"/><path class="cls-2" d="M106.72,221.58l12.91-7.45c.35-.2.63-.06.63.32a1.35,1.35,0,0,1-.63,1l-12.91,7.45c-.34.2-.62.06-.62-.32A1.34,1.34,0,0,1,106.72,221.58Z"/><path class="cls-2" d="M109.24,224.19l12.9-7.45c.35-.2.63-.06.63.31a1.38,1.38,0,0,1-.63,1l-12.9,7.45c-.35.2-.63.06-.63-.32A1.36,1.36,0,0,1,109.24,224.19Z"/><path class="cls-9" d="M106.22,227.72l1-1.85v-.19l-1-.64s-.12.07-.12.17v2.49C106.1,227.79,106.17,227.81,106.22,227.72Z"/><path class="cls-2" d="M109.24,228.28l12.9-7.45c.35-.21.63-.06.63.31a1.34,1.34,0,0,1-.63,1.05l-12.9,7.45c-.35.2-.63.06-.63-.32A1.35,1.35,0,0,1,109.24,228.28Z"/><path class="cls-9" d="M106.22,231.81l1-1.85v-.19l-1-.64s-.12.07-.12.17v2.49C106.1,231.88,106.17,231.9,106.22,231.81Z"/><path class="cls-2" d="M109.24,232.37l12.9-7.46c.35-.2.63,0,.63.32a1.34,1.34,0,0,1-.63,1.05l-12.9,7.45c-.35.2-.63.06-.63-.32A1.31,1.31,0,0,1,109.24,232.37Z"/><path class="cls-9" d="M106.22,235.9l1-1.85v-.19l-1-.64s-.12.07-.12.17v2.48C106.1,236,106.17,236,106.22,235.9Z"/><path class="cls-2" d="M109.24,236.46l12.9-7.46c.35-.2.63-.05.63.32a1.34,1.34,0,0,1-.63,1.05l-12.9,7.45c-.35.2-.63.06-.63-.32A1.31,1.31,0,0,1,109.24,236.46Z"/><path class="cls-9" d="M106.22,240l1-1.85V238l-1-.64s-.12.07-.12.17V240C106.1,240.06,106.17,240.08,106.22,240Z"/><path class="cls-2" d="M109.24,240.54l12.9-7.45c.35-.2.63-.05.63.32a1.34,1.34,0,0,1-.63,1.05l-12.9,7.45c-.35.2-.63.06-.63-.32A1.37,1.37,0,0,1,109.24,240.54Z"/><path class="cls-9" d="M106.22,244.08l1-1.85V242l-1-.64s-.12.07-.12.16v2.49C106.1,244.15,106.17,244.16,106.22,244.08Z"/><path class="cls-2" d="M109.24,244.63l12.9-7.45c.35-.2.63-.06.63.32a1.34,1.34,0,0,1-.63,1.05L109.24,246c-.35.2-.63.06-.63-.32A1.34,1.34,0,0,1,109.24,244.63Z"/><path class="cls-9" d="M106.22,248.16l1-1.84v-.19l-1-.64s-.12.07-.12.16v2.49C106.1,248.24,106.17,248.25,106.22,248.16Z"/><path class="cls-2" d="M109.24,248.72l12.9-7.45c.35-.2.63-.06.63.32a1.38,1.38,0,0,1-.63,1L109.24,250c-.35.2-.63,0-.63-.32A1.38,1.38,0,0,1,109.24,248.72Z"/><path class="cls-9" d="M106.22,252.25l1-1.85v-.18l-1-.64s-.12.07-.12.16v2.49C106.1,252.33,106.17,252.34,106.22,252.25Z"/><path class="cls-2" d="M109.24,252.81l12.9-7.45c.35-.2.63-.06.63.32a1.35,1.35,0,0,1-.63,1l-12.9,7.46c-.35.2-.63,0-.63-.32A1.32,1.32,0,0,1,109.24,252.81Z"/><path class="cls-9" d="M106.22,256.34l1-1.85v-.18l-1-.64s-.12.06-.12.16v2.49C106.1,256.42,106.17,256.43,106.22,256.34Z"/><path class="cls-1" d="M135.05,167l42.42-24.49a1.39,1.39,0,0,0,.63-1.09V130.64c0-.4-.28-.56-.63-.36l-42.42,24.49a1.41,1.41,0,0,0-.63,1.09v10.82C134.42,167.08,134.71,167.24,135.05,167Z"/><path class="cls-9" d="M138.75,159.41h0l.27-1.16-.38.22h0v-.21h0l.62-.35h0v.2l-.28,1.16h0l-.18.11h0Z"/><path class="cls-9" d="M139.78,157.45a.25.25,0,0,1,.17,0h.11a.21.21,0,0,1,.07.13.61.61,0,0,1,0,.19v.58a.86.86,0,0,1-.07.21,1.74,1.74,0,0,1-.11.18l-.17.14a.34.34,0,0,1-.17.05.16.16,0,0,1-.11-.05.33.33,0,0,1-.07-.13V158a1.42,1.42,0,0,1,.07-.22,1.74,1.74,0,0,1,.11-.18Zm.14.8v-.48h-.06a.06.06,0,0,0-.06,0,.22.22,0,0,0-.05.08v.66h.05a.06.06,0,0,0,.06,0,.1.1,0,0,0,.06,0v-.08a.11.11,0,0,0,0-.08Z"/><path class="cls-9" d="M140.67,157.23a.38.38,0,0,1,0,.15.45.45,0,0,1,0,.23l-.06.09-.09.08h-.15a.09.09,0,0,1,0-.07.17.17,0,0,1,0-.1v-.15a.45.45,0,0,1,0-.23l.06-.1.09-.07h.15v.07A.17.17,0,0,1,140.67,157.23Zm.33-.42h0l.11-.06h0l-.63,1.66h0l-.11.06h0Zm-.58.71a.09.09,0,0,0,0,.07h0v-.05a.14.14,0,0,0,0-.09.29.29,0,0,0,0-.13.09.09,0,0,0,0-.07h0v.05a.11.11,0,0,0,0,.08A.33.33,0,0,0,140.42,157.52Zm.85.06V158l-.06.09-.09.08H141a.09.09,0,0,1,0-.07.17.17,0,0,1,0-.1v-.15a.45.45,0,0,1,0-.23l.06-.1.09-.07h.15v.17Zm-.25.29v.06h0v-.05a.14.14,0,0,0,0-.09v-.13a.09.09,0,0,0,0-.07h0v0a.11.11,0,0,0,0,.08.26.26,0,0,0,0,.15Z"/><path class="cls-9" d="M138.75,156.07l-.43-.65a8.76,8.76,0,0,0-1,2.71H138A6.6,6.6,0,0,1,138.75,156.07Z"/><path class="cls-9" d="M140,154.78v-1.12a4.92,4.92,0,0,0-1.63,1.76l.43.65A3.46,3.46,0,0,1,140,154.78Z"/><path class="cls-9" d="M137.9,159.11a6.64,6.64,0,0,1,.1-1h-.69a8.19,8.19,0,0,0-.13,1.4,5.74,5.74,0,0,0,.13,1.24L138,160A3.8,3.8,0,0,1,137.9,159.11Z"/><path class="cls-6" d="M142.58,155.09a2.25,2.25,0,0,0-1-1.55,1.6,1.6,0,0,0-1.62.12v1.12a1.18,1.18,0,0,1,1.2-.09,1.65,1.65,0,0,1,.74,1.14,3.56,3.56,0,0,1,.1.92,4.78,4.78,0,0,1-.1,1,6.27,6.27,0,0,1-.74,2,3.65,3.65,0,0,1-1.2,1.3,1.2,1.2,0,0,1-1.2.09A1.71,1.71,0,0,1,138,160l-.69.75a2.33,2.33,0,0,0,1,1.55,1.64,1.64,0,0,0,1.63-.13,4.77,4.77,0,0,0,1.62-1.75,8.49,8.49,0,0,0,1-2.72,7.2,7.2,0,0,0,.14-1.39A5,5,0,0,0,142.58,155.09Z"/><path class="cls-9" d="M146.86,152l12.9-7.45c.35-.2.63-.06.63.32a1.35,1.35,0,0,1-.63,1l-12.9,7.45c-.35.2-.63.06-.63-.31A1.32,1.32,0,0,1,146.86,152Z"/><path class="cls-2" d="M146.86,154.79l22.35-12.9c.34-.2.62-.06.62.32a1.34,1.34,0,0,1-.62,1l-22.35,12.9c-.35.2-.63.06-.63-.32A1.35,1.35,0,0,1,146.86,154.79Z"/><path class="cls-1" d="M181.08,140.46,223.5,116a1.39,1.39,0,0,0,.63-1.09V104.06c0-.4-.28-.56-.63-.36l-42.42,24.49a1.41,1.41,0,0,0-.63,1.09V140.1C180.45,140.5,180.74,140.66,181.08,140.46Z"/><path class="cls-9" d="M185,131.84a.89.89,0,0,1,0-.23.72.72,0,0,1,.09-.2.73.73,0,0,1,.26-.29h.26a.28.28,0,0,1,.08.11.31.31,0,0,1,0,.19v.41l-.24.66h0l-.21.12h0l.17-.45h-.22a.18.18,0,0,1-.07-.1A.48.48,0,0,1,185,131.84Zm.52-.3v-.07h-.05v.14a.11.11,0,0,0,0,.08v.06h.05v-.13s0-.06,0-.08Z"/><path class="cls-9" d="M186.23,130.62a.48.48,0,0,1,.17-.05.16.16,0,0,1,.11.05.33.33,0,0,1,.07.13.67.67,0,0,1,0,.2v.57a.86.86,0,0,1-.07.21,1.08,1.08,0,0,1-.11.18.39.39,0,0,1-.17.14.27.27,0,0,1-.17.06.22.22,0,0,1-.11-.05.61.61,0,0,1-.07-.14v-.76L186,131a1.18,1.18,0,0,1,.11-.19Zm.14.81V131h-.07l-.06.06v.73h.06l.07-.06v-.25Z"/><path class="cls-9" d="M187.12,130.4a.38.38,0,0,1,0,.15v.12a.21.21,0,0,1,0,.11l-.06.1L187,131a.14.14,0,0,1-.09,0,0,0,0,0,1-.06-.06v-.26a.21.21,0,0,1,0-.11v-.12l.06-.09.09-.07a.14.14,0,0,1,.09,0h.06a.09.09,0,0,1,0,.07Zm.33-.42h0l.11-.06h0l-.63,1.66h0l-.11.07h0Zm-.58.71v.07h0a.11.11,0,0,0,0-.08.29.29,0,0,0,0-.13v-.07h0v.05a.14.14,0,0,0,0,.09Zm.85.06V131a.21.21,0,0,1,0,.11l-.06.1-.09.07h-.15a.06.06,0,0,1,0-.06V131a.21.21,0,0,1,0-.11v-.12l.06-.09.09-.07h.15a.09.09,0,0,1,0,.07Zm-.25.29v.07h0v-.05a.11.11,0,0,0,0-.08v-.2h0a.14.14,0,0,0,0,.09.29.29,0,0,0,0,.13Z"/><path class="cls-9" d="M186.36,128v-1.11a4.89,4.89,0,0,0-1.63,1.75l.43.66A3.65,3.65,0,0,1,186.36,128Z"/><path class="cls-6" d="M189,128.28a2.37,2.37,0,0,0-1-1.55,1.64,1.64,0,0,0-1.63.13V128a1.2,1.2,0,0,1,1.2-.09,1.71,1.71,0,0,1,.75,1.15,4,4,0,0,1,.1.91,6.64,6.64,0,0,1-.1,1,6.29,6.29,0,0,1-.75,2,3.41,3.41,0,0,1-1.2,1.3,1.18,1.18,0,0,1-1.2.09,1.69,1.69,0,0,1-.75-1.14,4.05,4.05,0,0,1-.1-.92,6.64,6.64,0,0,1,.1-1,6.54,6.54,0,0,1,.75-2l-.43-.66a8.49,8.49,0,0,0-1,2.72,7.2,7.2,0,0,0-.14,1.39,5.18,5.18,0,0,0,.14,1.24,2.25,2.25,0,0,0,1,1.55,1.61,1.61,0,0,0,1.63-.12,4.92,4.92,0,0,0,1.63-1.76h0a8.76,8.76,0,0,0,1-2.71,7.3,7.3,0,0,0,.14-1.4A5,5,0,0,0,189,128.28Z"/><path class="cls-9" d="M193.26,125.24l12.9-7.45c.35-.21.63-.06.63.31a1.34,1.34,0,0,1-.63,1.05l-12.9,7.45c-.35.2-.63.06-.63-.32A1.35,1.35,0,0,1,193.26,125.24Z"/><path class="cls-2" d="M193.26,128l22.35-12.9a.38.38,0,0,1,.63.32,1.38,1.38,0,0,1-.63,1l-22.35,12.9c-.35.2-.63.06-.63-.32A1.38,1.38,0,0,1,193.26,128Z"/><path class="cls-9" d="M139.37,170l9.06-5.24c.34-.2.63-.06.63.32a1.38,1.38,0,0,1-.63,1l-9.06,5.24c-.34.2-.62.06-.62-.32A1.34,1.34,0,0,1,139.37,170Z"/><path class="cls-2" d="M223.82,124.64h0m-.27.15v69.14a.82.82,0,0,1-.34.59L135,245.44V176.3a.83.83,0,0,1,.33-.59l1.11-.63a2,2,0,0,0,.92-1.59v-4a.83.83,0,0,1,.33-.59l12.67-7.31v3.72a1,1,0,0,0,.93,1,1.15,1.15,0,0,0,.57-.17l71.68-41.38m-72.92,36.65h0M223.77,124a.55.55,0,0,0-.28.09l-71.92,41.52a.55.55,0,0,1-.28.09c-.21,0-.35-.17-.35-.45v-4c0-.29-.14-.45-.35-.45a.55.55,0,0,0-.28.09l-12.91,7.45a1.41,1.41,0,0,0-.63,1.09v4a1.45,1.45,0,0,1-.62,1.09l-1.11.63a1.41,1.41,0,0,0-.63,1.09v69.42c0,.29.15.45.35.45a.57.57,0,0,0,.28-.08L223.5,195a1.39,1.39,0,0,0,.63-1.09v-69.4c0-.29-.14-.45-.35-.45Z"/><path class="cls-2" d="M140.11,179.32a.68.68,0,0,1-.31-.08.73.73,0,0,1-.33-.66v-2.64a1.69,1.69,0,0,1,.78-1.34l7-4a.73.73,0,0,1,.74,0,.76.76,0,0,1,.33.66v2.64a1.69,1.69,0,0,1-.78,1.34l-7,4A.94.94,0,0,1,140.11,179.32Zm.43-4.21a1.12,1.12,0,0,0-.49.83v2.64a.22.22,0,0,0,0,.16.3.3,0,0,0,.16-.05l7-4a1.14,1.14,0,0,0,.49-.84v-2.79h-.16Z"/><path class="cls-2" d="M141,176.19l4.57-2.65c.23-.13.42,0,.42.21a.92.92,0,0,1-.42.7L141,177.1c-.24.13-.42,0-.42-.21A.9.9,0,0,1,141,176.19Z"/><path class="cls-9" d="M146.59,173.1l.38.54H147l.38-1v-.07l-.76.44S146.57,173.08,146.59,173.1Z"/><path class="cls-19" d="M139.15,204.86a.37.37,0,0,1,.6.35,1.34,1.34,0,0,1-.6,1,.38.38,0,0,1-.61-.35A1.33,1.33,0,0,1,139.15,204.86Z"/><path class="cls-19" d="M143.87,199.41c.33-.2.6,0,.6.35a1.35,1.35,0,0,1-.6,1.05.38.38,0,0,1-.61-.35A1.32,1.32,0,0,1,143.87,199.41Z"/><path class="cls-19" d="M148.59,196.68a.37.37,0,0,1,.6.35,1.31,1.31,0,0,1-.6,1.05.38.38,0,0,1-.61-.35A1.35,1.35,0,0,1,148.59,196.68Z"/><path class="cls-19" d="M153.31,195.15a.37.37,0,0,1,.61.35,1.35,1.35,0,0,1-.61,1.05.38.38,0,0,1-.61-.35A1.35,1.35,0,0,1,153.31,195.15Z"/><path class="cls-19" d="M158,190.24a.37.37,0,0,1,.6.35,1.37,1.37,0,0,1-.6,1.06.38.38,0,0,1-.61-.36A1.35,1.35,0,0,1,158,190.24Z"/><path class="cls-19" d="M162.75,188.5a.38.38,0,0,1,.61.35,1.32,1.32,0,0,1-.61,1.05c-.33.2-.6,0-.6-.35A1.4,1.4,0,0,1,162.75,188.5Z"/><path class="cls-19" d="M167.47,183.05a.38.38,0,0,1,.61.35,1.33,1.33,0,0,1-.61,1c-.33.2-.6,0-.6-.35A1.36,1.36,0,0,1,167.47,183.05Z"/><path class="cls-19" d="M172.2,181.69a.37.37,0,0,1,.6.35,1.31,1.31,0,0,1-.6,1.05.38.38,0,0,1-.61-.35A1.32,1.32,0,0,1,172.2,181.69Z"/><path class="cls-19" d="M176.92,166.7c.33-.2.6,0,.6.35a1.36,1.36,0,0,1-.6,1,.38.38,0,0,1-.61-.35A1.33,1.33,0,0,1,176.92,166.7Z"/><path class="cls-19" d="M181.64,174.87a.37.37,0,0,1,.61.35,1.38,1.38,0,0,1-.61,1.06.38.38,0,0,1-.61-.36A1.35,1.35,0,0,1,181.64,174.87Z"/><path class="cls-19" d="M186.36,174.87a.37.37,0,0,1,.61.35,1.38,1.38,0,0,1-.61,1.06.38.38,0,0,1-.61-.36A1.35,1.35,0,0,1,186.36,174.87Z"/><path class="cls-19" d="M191.08,174.87a.38.38,0,0,1,.61.35,1.35,1.35,0,0,1-.61,1.06.37.37,0,0,1-.61-.35A1.38,1.38,0,0,1,191.08,174.87Z"/><path class="cls-19" d="M195.8,166.7a.38.38,0,0,1,.61.35,1.35,1.35,0,0,1-.61,1,.37.37,0,0,1-.6-.35A1.34,1.34,0,0,1,195.8,166.7Z"/><path class="cls-19" d="M200.52,165.13a.38.38,0,0,1,.61.35,1.32,1.32,0,0,1-.61,1.05.37.37,0,0,1-.6-.35A1.31,1.31,0,0,1,200.52,165.13Z"/><path class="cls-19" d="M205.26,158.52a.38.38,0,0,1,.61.35,1.33,1.33,0,0,1-.61,1,.37.37,0,0,1-.6-.35A1.34,1.34,0,0,1,205.26,158.52Z"/><ellipse class="cls-19" cx="209.97" cy="159.23" rx="0.86" ry="0.5" transform="translate(-32.91 261.46) rotate(-60)"/><ellipse class="cls-19" cx="214.69" cy="159.23" rx="0.86" ry="0.5" transform="translate(-30.55 265.55) rotate(-60)"/><path class="cls-19" d="M219.41,155.79a.38.38,0,0,1,.61.35,1.32,1.32,0,0,1-.61,1.05.38.38,0,0,1-.61-.35A1.35,1.35,0,0,1,219.41,155.79Z"/><path class="cls-19" d="M139.13,205.71H139a.17.17,0,0,1,0-.21l4.77-5.48h0l4.69-2.7,4.71-1.53,4.7-4.89h0l4.69-1.73,4.69-5.42h.07l4.65-1.34,4.7-14.92a.15.15,0,0,1,.12-.1.15.15,0,0,1,.14.07l4.68,8.11H191l4.68-8.11a.09.09,0,0,1,.08-.06l4.67-1.55,4.7-6.58a.14.14,0,0,1,.12-.06h9.4l4.69-2.7a.14.14,0,0,1,.14.25l-4.72,2.73h-9.44L200.64,166a.13.13,0,0,1-.07.06l-4.67,1.55-4.69,8.13a.17.17,0,0,1-.13.07h-9.44a.17.17,0,0,1-.13-.07l-4.51-8-4.63,14.67a.12.12,0,0,1-.09.1l-4.68,1.35-4.7,5.42h-.06L158.15,191l-4.7,4.88h-.06l-4.72,1.53L144,200.2l-4.75,5.46A.11.11,0,0,1,139.13,205.71Z"/><path class="cls-2" d="M139.15,208.58a.31.31,0,0,1-.26-.15.3.3,0,0,1,.1-.4h0l80.26-46.34a.3.3,0,0,1,.4.1h0a.3.3,0,0,1-.1.4l-80.27,46.34A.33.33,0,0,1,139.15,208.58Z"/><path class="cls-3" d="M139.15,202.13a.37.37,0,0,1,.6.35,1.31,1.31,0,0,1-.6,1.05.38.38,0,0,1-.61-.35A1.35,1.35,0,0,1,139.15,202.13Z"/><path class="cls-3" d="M143.87,194c.33-.2.6,0,.6.35a1.4,1.4,0,0,1-.6,1.05.38.38,0,0,1-.61-.35A1.32,1.32,0,0,1,143.87,194Z"/><ellipse class="cls-3" cx="148.59" cy="193.65" rx="0.86" ry="0.5" transform="translate(-93.41 225.51) rotate(-60)"/><path class="cls-3" d="M153.31,183.05a.38.38,0,0,1,.61.35,1.35,1.35,0,0,1-.61,1,.38.38,0,0,1-.61-.35A1.35,1.35,0,0,1,153.31,183.05Z"/><path class="cls-3" d="M158,185.78c.33-.2.6,0,.6.35a1.31,1.31,0,0,1-.6,1.05.38.38,0,0,1-.61-.35A1.32,1.32,0,0,1,158,185.78Z"/><path class="cls-3" d="M162.75,184.42a.38.38,0,0,1,.61.35,1.35,1.35,0,0,1-.61,1,.37.37,0,0,1-.6-.35A1.34,1.34,0,0,1,162.75,184.42Z"/><path class="cls-3" d="M167.47,180.33a.38.38,0,0,1,.61.35,1.35,1.35,0,0,1-.61,1,.37.37,0,0,1-.6-.35A1.34,1.34,0,0,1,167.47,180.33Z"/><path class="cls-3" d="M172.2,174.87a.37.37,0,0,1,.6.35,1.37,1.37,0,0,1-.6,1.06.38.38,0,0,1-.61-.36A1.35,1.35,0,0,1,172.2,174.87Z"/><path class="cls-3" d="M176.92,173.51a.37.37,0,0,1,.6.35,1.34,1.34,0,0,1-.6,1,.38.38,0,0,1-.61-.35A1.33,1.33,0,0,1,176.92,173.51Z"/><path class="cls-3" d="M181.64,169.42a.37.37,0,0,1,.6.35,1.34,1.34,0,0,1-.6,1,.38.38,0,0,1-.61-.35A1.35,1.35,0,0,1,181.64,169.42Z"/><path class="cls-3" d="M186.36,169.42a.37.37,0,0,1,.61.35,1.35,1.35,0,0,1-.61,1,.38.38,0,0,1-.61-.35A1.35,1.35,0,0,1,186.36,169.42Z"/><path class="cls-3" d="M191.08,158.52a.38.38,0,0,1,.61.35,1.33,1.33,0,0,1-.61,1,.38.38,0,0,1-.61-.35A1.35,1.35,0,0,1,191.08,158.52Z"/><path class="cls-3" d="M195.8,163.93a.38.38,0,0,1,.61.35,1.32,1.32,0,0,1-.61,1.05c-.33.2-.6,0-.6-.35A1.4,1.4,0,0,1,195.8,163.93Z"/><path class="cls-3" d="M200.52,158.52a.38.38,0,0,1,.61.35,1.33,1.33,0,0,1-.61,1,.37.37,0,0,1-.6-.35A1.34,1.34,0,0,1,200.52,158.52Z"/><path class="cls-3" d="M205.25,155.79a.37.37,0,0,1,.6.35,1.31,1.31,0,0,1-.6,1.05.38.38,0,0,1-.61-.35A1.35,1.35,0,0,1,205.25,155.79Z"/><path class="cls-3" d="M210,155.79a.37.37,0,0,1,.6.35,1.31,1.31,0,0,1-.6,1.05.38.38,0,0,1-.61-.35A1.35,1.35,0,0,1,210,155.79Z"/><path class="cls-3" d="M214.69,153.07a.38.38,0,0,1,.61.35,1.39,1.39,0,0,1-.61,1.05.38.38,0,0,1-.61-.35A1.32,1.32,0,0,1,214.69,153.07Z"/><path class="cls-3" d="M219.41,153.07a.38.38,0,0,1,.61.35,1.35,1.35,0,0,1-.61,1.05.37.37,0,0,1-.61-.35A1.35,1.35,0,0,1,219.41,153.07Z"/><path class="cls-3" d="M139.15,203h-.08a.15.15,0,0,1,0-.2l4.76-8.2a.16.16,0,0,1,.09-.07l4.62-1,4.69-9.82a.18.18,0,0,1,.09-.08.11.11,0,0,1,.11,0l4.68,2.69,4.62-1.34,4.69-4.06,4.72-5.44h.06l4.7-1.36,4.69-4.07a.17.17,0,0,1,.1,0h4.62L191,159.16a.12.12,0,0,1,.11-.08.15.15,0,0,1,.13,0l4.61,5.33,4.61-5.33h0l4.74-2.73H210l4.68-2.7h4.79a.15.15,0,0,1,.15.15.15.15,0,0,1-.15.14h-4.68l-4.67,2.7H205.3l-4.68,2.7-4.71,5.44a.16.16,0,0,1-.22,0l-4.57-5.28-4.63,10.69a.14.14,0,0,1-.13.09h-4.67l-4.68,4h0l-4.68,1.35-4.7,5.43-4.73,4.1h-.06l-4.71,1.36H158L153.37,184l-4.65,9.74a.16.16,0,0,1-.1.08l-4.63,1L139.27,203A.14.14,0,0,1,139.15,203Z"/><g class="cls-20"><path class="cls-3" d="M139.15,202.13a.37.37,0,0,1,.6.35,1.31,1.31,0,0,1-.6,1.05.38.38,0,0,1-.61-.35A1.35,1.35,0,0,1,139.15,202.13Z"/><path class="cls-3" d="M143.87,194c.33-.2.6,0,.6.35a1.4,1.4,0,0,1-.6,1.05.38.38,0,0,1-.61-.35A1.32,1.32,0,0,1,143.87,194Z"/><ellipse class="cls-3" cx="148.59" cy="193.65" rx="0.86" ry="0.5" transform="translate(-93.41 225.51) rotate(-60)"/><path class="cls-3" d="M153.31,183.05a.38.38,0,0,1,.61.35,1.35,1.35,0,0,1-.61,1,.38.38,0,0,1-.61-.35A1.35,1.35,0,0,1,153.31,183.05Z"/><path class="cls-3" d="M158,185.78c.33-.2.6,0,.6.35a1.31,1.31,0,0,1-.6,1.05.38.38,0,0,1-.61-.35A1.32,1.32,0,0,1,158,185.78Z"/><path class="cls-3" d="M162.75,184.42a.38.38,0,0,1,.61.35,1.35,1.35,0,0,1-.61,1,.37.37,0,0,1-.6-.35A1.34,1.34,0,0,1,162.75,184.42Z"/><path class="cls-3" d="M167.47,180.33a.38.38,0,0,1,.61.35,1.35,1.35,0,0,1-.61,1,.37.37,0,0,1-.6-.35A1.34,1.34,0,0,1,167.47,180.33Z"/><path class="cls-3" d="M172.2,174.87a.37.37,0,0,1,.6.35,1.37,1.37,0,0,1-.6,1.06.38.38,0,0,1-.61-.36A1.35,1.35,0,0,1,172.2,174.87Z"/><path class="cls-3" d="M176.92,173.51a.37.37,0,0,1,.6.35,1.34,1.34,0,0,1-.6,1,.38.38,0,0,1-.61-.35A1.33,1.33,0,0,1,176.92,173.51Z"/><path class="cls-3" d="M181.64,169.42a.37.37,0,0,1,.6.35,1.34,1.34,0,0,1-.6,1,.38.38,0,0,1-.61-.35A1.35,1.35,0,0,1,181.64,169.42Z"/><path class="cls-3" d="M186.36,169.42a.37.37,0,0,1,.61.35,1.35,1.35,0,0,1-.61,1,.38.38,0,0,1-.61-.35A1.35,1.35,0,0,1,186.36,169.42Z"/><path class="cls-3" d="M191.08,158.52a.38.38,0,0,1,.61.35,1.33,1.33,0,0,1-.61,1,.38.38,0,0,1-.61-.35A1.35,1.35,0,0,1,191.08,158.52Z"/><path class="cls-3" d="M195.8,163.93a.38.38,0,0,1,.61.35,1.32,1.32,0,0,1-.61,1.05c-.33.2-.6,0-.6-.35A1.4,1.4,0,0,1,195.8,163.93Z"/><path class="cls-3" d="M200.52,158.52a.38.38,0,0,1,.61.35,1.33,1.33,0,0,1-.61,1,.37.37,0,0,1-.6-.35A1.34,1.34,0,0,1,200.52,158.52Z"/><path class="cls-3" d="M205.25,155.79a.37.37,0,0,1,.6.35,1.31,1.31,0,0,1-.6,1.05.38.38,0,0,1-.61-.35A1.35,1.35,0,0,1,205.25,155.79Z"/><path class="cls-3" d="M210,155.79a.37.37,0,0,1,.6.35,1.31,1.31,0,0,1-.6,1.05.38.38,0,0,1-.61-.35A1.35,1.35,0,0,1,210,155.79Z"/><path class="cls-3" d="M214.69,153.07a.38.38,0,0,1,.61.35,1.39,1.39,0,0,1-.61,1.05.38.38,0,0,1-.61-.35A1.32,1.32,0,0,1,214.69,153.07Z"/><path class="cls-3" d="M219.41,153.07a.38.38,0,0,1,.61.35,1.35,1.35,0,0,1-.61,1.05.37.37,0,0,1-.61-.35A1.35,1.35,0,0,1,219.41,153.07Z"/><path class="cls-3" d="M139.15,203h-.08a.15.15,0,0,1,0-.2l4.76-8.2a.16.16,0,0,1,.09-.07l4.62-1,4.69-9.82a.18.18,0,0,1,.09-.08.11.11,0,0,1,.11,0l4.68,2.69,4.62-1.34,4.69-4.06,4.72-5.44h.06l4.7-1.36,4.69-4.07a.17.17,0,0,1,.1,0h4.62L191,159.16a.12.12,0,0,1,.11-.08.15.15,0,0,1,.13,0l4.61,5.33,4.61-5.33h0l4.74-2.73H210l4.68-2.7h4.79a.15.15,0,0,1,.15.15.15.15,0,0,1-.15.14h-4.68l-4.67,2.7H205.3l-4.68,2.7-4.71,5.44a.16.16,0,0,1-.22,0l-4.57-5.28-4.63,10.69a.14.14,0,0,1-.13.09h-4.67l-4.68,4h0l-4.68,1.35-4.7,5.43-4.73,4.1h-.06l-4.71,1.36H158L153.37,184l-4.65,9.74a.16.16,0,0,1-.1.08l-4.63,1L139.27,203A.14.14,0,0,1,139.15,203Z"/></g><path class="cls-2" d="M141.62,181.91l4.57-2.66a.26.26,0,0,1,.42.22.9.9,0,0,1-.42.69l-4.57,2.65a.25.25,0,0,1-.42-.21A.9.9,0,0,1,141.62,181.91Z"/><path class="cls-11" d="M139.15,183.05a.37.37,0,0,1,.6.35,1.34,1.34,0,0,1-.6,1,.38.38,0,0,1-.61-.35A1.35,1.35,0,0,1,139.15,183.05Z"/><path class="cls-15" d="M139.15,183.05a.37.37,0,0,1,.6.35,1.34,1.34,0,0,1-.6,1,.38.38,0,0,1-.61-.35A1.35,1.35,0,0,1,139.15,183.05Z"/><path class="cls-2" d="M141.62,184.62l4.57-2.65c.23-.13.42,0,.42.21a.9.9,0,0,1-.42.7l-4.57,2.65a.25.25,0,0,1-.42-.21A.92.92,0,0,1,141.62,184.62Z"/><path class="cls-11" d="M139.15,185.78c.33-.2.6,0,.6.35a1.31,1.31,0,0,1-.6,1.05.38.38,0,0,1-.61-.35A1.32,1.32,0,0,1,139.15,185.78Z"/><path class="cls-3" d="M139.15,222.1a.21.21,0,0,1-.11,0,.17.17,0,0,1,0-.21l2.4-2.46,2.35-.3,2.37-3.07,2.38.33,2.31-2.09,2.36-1.41,2.4-3.33,2.39.75,2.3-2.05a.13.13,0,0,1,.18,0l0,0a.13.13,0,0,1,0,.2h0l-2.42,2.16-2.34-.73-2.35,3.22L151,214.5l-2.38,2.16-2.35-.33-2.35,3-2.37.3L139.23,222A.11.11,0,0,1,139.15,222.1Z"/><path class="cls-9" d="M140.08,214.13h.06l.06,0a.76.76,0,0,1,.36-.11.43.43,0,0,1,.28.11.6.6,0,0,1,.19.3,1.25,1.25,0,0,1,.07.47,2,2,0,0,1-.07.54,2.23,2.23,0,0,1-.19.51,2.52,2.52,0,0,1-.28.44,1.31,1.31,0,0,1-.36.3.63.63,0,0,1-.35.11.44.44,0,0,1-.29-.11.62.62,0,0,1-.18-.3,1.2,1.2,0,0,1-.07-.46v-.3l.06-.29a2.76,2.76,0,0,1,.08-.27l.09-.25.63-1.79v-.09a.14.14,0,0,1,.07-.08l.19-.11h0v.07h0Zm-.44,1.51a.66.66,0,0,0,0,.28.45.45,0,0,0,.11.19.3.3,0,0,0,.18.08.4.4,0,0,0,.23-.08.91.91,0,0,0,.24-.2,1.67,1.67,0,0,0,.18-.28,1.73,1.73,0,0,0,.11-.32,1.82,1.82,0,0,0,0-.33.66.66,0,0,0,0-.28.45.45,0,0,0-.11-.19.29.29,0,0,0-.18-.07.4.4,0,0,0-.24.07,1.1,1.1,0,0,0-.23.2,1.67,1.67,0,0,0-.18.28,1.21,1.21,0,0,0-.11.32A1.82,1.82,0,0,0,139.64,215.64Z"/><path class="cls-9" d="M141.69,214.79v.14a.24.24,0,0,0,.1.1.22.22,0,0,0,.16,0,.81.81,0,0,0,.27-.11,1,1,0,0,0,.2-.16,1.18,1.18,0,0,0,.17-.22,1,1,0,0,0,.11-.28.86.86,0,0,0,0-.32,1.22,1.22,0,0,0,0-.27.23.23,0,0,0-.12-.12.15.15,0,0,0-.16,0,.4.4,0,0,0-.21.09l-.29.16h-.07s0-.05,0-.09v-.38l.62-1.39-1,.57h-.07a.14.14,0,0,1,0-.09v-.19a.21.21,0,0,1,0-.11.08.08,0,0,1,.07-.08l1.36-.79H143a.14.14,0,0,1,0,.09v.19a.17.17,0,0,1,0,.1v.12l-.61,1.37a.57.57,0,0,1,.31-.1.37.37,0,0,1,.25.07.6.6,0,0,1,.16.25,1.52,1.52,0,0,1,.06.42,2.33,2.33,0,0,1-.07.53,2,2,0,0,1-.19.46,2.7,2.7,0,0,1-.27.39,2.16,2.16,0,0,1-.33.27,1,1,0,0,1-.4.15.39.39,0,0,1-.28-.06.42.42,0,0,1-.16-.21.81.81,0,0,1-.06-.31v-.1l.06-.06.16-.09m.06,0v0Z"/><path class="cls-9" d="M143.74,213.6a.33.33,0,0,0,0,.14.22.22,0,0,0,.09.1.25.25,0,0,0,.17,0,.85.85,0,0,0,.26-.11,1,1,0,0,0,.2-.15.76.76,0,0,0,.17-.23,1.31,1.31,0,0,0,.12-.27.92.92,0,0,0,0-.33.61.61,0,0,0,0-.27.22.22,0,0,0-.11-.12.25.25,0,0,0-.17,0l-.21.09-.29.17m-.06,0a.11.11,0,0,1,0-.08v-.19a.17.17,0,0,1,0-.1.17.17,0,0,1,0-.1l.62-1.39-1,.58m-.06,0a.11.11,0,0,1,0-.08v-.19a.24.24,0,0,1,0-.12.16.16,0,0,1,.06-.08l1.36-.79a0,0,0,0,1,.07,0,.11.11,0,0,1,0,.08v.41l-.62,1.37a.75.75,0,0,1,.32-.1.33.33,0,0,1,.25.08.41.41,0,0,1,.15.25,1.4,1.4,0,0,1,.06.41,1.88,1.88,0,0,1-.07.53,2.07,2.07,0,0,1-.18.47,1.78,1.78,0,0,1-.28.38,1.4,1.4,0,0,1-.33.27,1,1,0,0,1-.4.15.43.43,0,0,1-.27-.06.39.39,0,0,1-.17-.21,1.06,1.06,0,0,1,0-.31.14.14,0,0,1,0-.09.18.18,0,0,1,0-.07l.16-.09m.06,0a.06.06,0,0,1,.08,0,.06.06,0,0,1,0,0Z"/><path class="cls-2" d="M139.57,224,160,212.15a.26.26,0,0,1,.42.22.9.9,0,0,1-.42.69l-20.4,11.82a.25.25,0,0,1-.42-.21A.87.87,0,0,1,139.57,224Z"/><path class="cls-2" d="M139.57,210.34l4.57-2.65c.24-.14.42,0,.42.21a.9.9,0,0,1-.42.7l-4.57,2.65c-.23.13-.42,0-.42-.21A.88.88,0,0,1,139.57,210.34Z"/><path class="cls-19" d="M139.15,238.44H139a.15.15,0,0,1,0-.2l2.4-2.47,2.36-.3,2.39-2.08,2.3-.63,2.39-4.77,2.41,1.18,2.31-2h0l2.3-.44,2.33-4a.15.15,0,0,1,.2,0,.17.17,0,0,1,0,.2L158.09,227l-2.39.46-2.41,2.11L151,228.34,148.69,233l-2.39.65-2.37,2.09-2.36.3-2.32,2.39A.12.12,0,0,1,139.15,238.44Z"/><path class="cls-9" d="M140.35,232.65a.24.24,0,0,1,0,.12.16.16,0,0,1-.06.08l-.14.08a0,0,0,0,1-.07,0,.14.14,0,0,1,0-.09v-2.93l-.56,1a.12.12,0,0,1-.07.07h-.06l-.08-.11a.17.17,0,0,1,0-.1.24.24,0,0,1,0-.12l.74-1.3a.1.1,0,0,1,0-.06h.06l.14-.08h.06a.14.14,0,0,1,0,.09Z"/><path class="cls-9" d="M141.86,230a3.2,3.2,0,0,0,.16-.39,1.41,1.41,0,0,0,0-.41.65.65,0,0,0-.11-.41c-.07-.09-.18-.08-.34,0a.7.7,0,0,0-.2.18.64.64,0,0,0-.14.22,1.43,1.43,0,0,0-.09.27,1.4,1.4,0,0,0-.06.28.21.21,0,0,1,0,.11l-.06.06-.16.09h0a.09.09,0,0,1,0-.07,1.54,1.54,0,0,1,.06-.43,1.69,1.69,0,0,1,.08-.5,1.79,1.79,0,0,1,.25-.42,1.08,1.08,0,0,1,.34-.3.6.6,0,0,1,.34-.11.32.32,0,0,1,.24.11.72.72,0,0,1,.15.27,2,2,0,0,1,.05.42v.32a1.36,1.36,0,0,1-.06.29,1.76,1.76,0,0,1-.1.3q-.06.15-.15.33l-.77,1.55,1.06-.61m.06,0v.27a.24.24,0,0,1,0,.12l-.06.08-1.49.86a0,0,0,0,1-.07,0v-.27a.21.21,0,0,1,0-.11l.06-.14Z"/><path class="cls-9" d="M144.59,228v.9a4.18,4.18,0,0,1-.05.61,3.47,3.47,0,0,1-.16.55,2,2,0,0,1-.27.47,1.45,1.45,0,0,1-.4.34.6.6,0,0,1-.39.11.36.36,0,0,1-.27-.15,1,1,0,0,1-.16-.37,2.48,2.48,0,0,1-.06-.54V229a3.33,3.33,0,0,1,.22-1.17,2,2,0,0,1,.27-.47,1.41,1.41,0,0,1,.39-.34.64.64,0,0,1,.4-.11.37.37,0,0,1,.27.15,1,1,0,0,1,.16.37A3.41,3.41,0,0,1,144.59,228Zm-1.43,1.73a1.16,1.16,0,0,0,.14.66c.1.1.23.1.41,0a1,1,0,0,0,.41-.48,1.93,1.93,0,0,0,.15-.82v-.9a1,1,0,0,0-.15-.67c-.09-.1-.23-.11-.41,0a1,1,0,0,0-.41.48,2.13,2.13,0,0,0-.14.83v.45c0,.14,0,.33,0,.49Z"/><path class="cls-2" d="M139.57,240.32,160,228.5a.25.25,0,0,1,.42.21.9.9,0,0,1-.42.69l-20.4,11.83a.26.26,0,0,1-.42-.22A.88.88,0,0,1,139.57,240.32Z"/><path class="cls-2" d="M139.57,226.68l4.57-2.65c.24-.14.42,0,.42.21a.9.9,0,0,1-.42.7l-4.57,2.65c-.23.13-.42,0-.42-.21A.9.9,0,0,1,139.57,226.68Z"/><path class="cls-3" d="M167.47,205.71a.16.16,0,0,1-.11-.05.15.15,0,0,1,0-.21l2.36-1.88,2.38-2.72,2.42-.35,2.3-.52,2.38-2.81,2.35.41,2.35-3.72h2.39l2.31-2.06a.15.15,0,0,1,.21,0,.13.13,0,0,1,0,.2h0l-2.4,2.15h-2.34l-2.37,3.75-2.38-.42L177,200.25l-2.41.54-2.32.33-2.33,2.66-2.37,1.9A.17.17,0,0,1,167.47,205.71Z"/><path class="cls-9" d="M168.41,197.74l.06-.05.06-.05a.76.76,0,0,1,.36-.11.43.43,0,0,1,.28.11.73.73,0,0,1,.19.3,1.49,1.49,0,0,1,.07.47,2.5,2.5,0,0,1-.07.54,2.82,2.82,0,0,1-.19.51,1.83,1.83,0,0,1-.28.44,1.31,1.31,0,0,1-.36.3.66.66,0,0,1-.36.11.43.43,0,0,1-.28-.11.7.7,0,0,1-.19-.29,1.84,1.84,0,0,1-.06-.47,1.5,1.5,0,0,1,0-.3,1.27,1.27,0,0,1,.06-.28,2.76,2.76,0,0,1,.08-.27l.09-.26.63-1.79v-.09a.16.16,0,0,1,.06-.08l.2-.11h.05c.05,0,0,0,0,.07h0Zm-.44,1.51a1.31,1.31,0,0,0,0,.28.62.62,0,0,0,.12.19.3.3,0,0,0,.17.08.51.51,0,0,0,.24-.07.69.69,0,0,0,.24-.21,1.67,1.67,0,0,0,.18-.28,3,3,0,0,0,.11-.32,1.71,1.71,0,0,0,0-.32,1.31,1.31,0,0,0,0-.28.56.56,0,0,0-.11-.2.29.29,0,0,0-.18-.07.51.51,0,0,0-.24.07,1.16,1.16,0,0,0-.24.2,1.61,1.61,0,0,0-.17.28,1.75,1.75,0,0,0-.12.32,1.84,1.84,0,0,0,0,.33Z"/><path class="cls-9" d="M170.8,196.88a2.54,2.54,0,0,0,.16-.38,1.48,1.48,0,0,0,0-.42.67.67,0,0,0-.11-.41c-.07-.08-.18-.08-.34,0a.82.82,0,0,0-.2.17.79.79,0,0,0-.14.23,1.43,1.43,0,0,0-.09.27l-.06.27a.24.24,0,0,1,0,.12l-.06.06-.16.09h0a.09.09,0,0,1,0-.07,1.61,1.61,0,0,1,.06-.44,1.72,1.72,0,0,1,.16-.45,1.79,1.79,0,0,1,.25-.42,1.26,1.26,0,0,1,.34-.31.67.67,0,0,1,.34-.1.35.35,0,0,1,.24.1.76.76,0,0,1,.15.28,1.84,1.84,0,0,1,0,.41,1.71,1.71,0,0,1,0,.32,1.59,1.59,0,0,1-.06.3,1.76,1.76,0,0,1-.1.3q-.06.15-.15.33l-.77,1.55,1.06-.61m.06,0a.14.14,0,0,1,0,.09v.19a.24.24,0,0,1,0,.12l-.06.08-1.49.86a0,0,0,0,1-.07,0,.11.11,0,0,1,0-.08V199l.06-.13Z"/><path class="cls-9" d="M173.15,193.76a0,0,0,0,1,.07,0,.11.11,0,0,1,0,.08v.4l-.77,3.49v.11a.11.11,0,0,1-.06.07l-.16.1m-.06,0a.09.09,0,0,1,0-.07h0l.77-3.5-1.13.65h-.07a.14.14,0,0,1,0-.09v-.19a.24.24,0,0,1,0-.12.27.27,0,0,1,.07-.08Z"/><path class="cls-2" d="M167.9,207.59l20.4-11.82a.25.25,0,0,1,.42.21.9.9,0,0,1-.42.69L167.9,208.5a.26.26,0,0,1-.42-.22A.9.9,0,0,1,167.9,207.59Z"/><path class="cls-2" d="M167.9,194l4.57-2.65a.25.25,0,0,1,.42.21.92.92,0,0,1-.42.7l-4.57,2.65c-.23.13-.42,0-.42-.21A.9.9,0,0,1,167.9,194Z"/><path class="cls-19" d="M167.47,222.05h-.07a.15.15,0,0,1-.05-.2l2.41-4,2.43.45,2.28-.62,2.37-2.88,2.34-.59,2.39-4.26,2.44.71,2.29-.43,2.32-2.07a.14.14,0,0,1,.2,0h0a.13.13,0,0,1,0,.2h0l-2.39,2.13h0L184,211l-2.28-.66-2.34,4.16-2.37.6-2.37,2.9h0l-2.39.65h0l-2.26-.41L167.6,222A.13.13,0,0,1,167.47,222.05Z"/><path class="cls-9" d="M168.57,215.2h0a.6.6,0,0,1-.32.1.38.38,0,0,1-.27-.08.56.56,0,0,1-.2-.28,1.35,1.35,0,0,1-.07-.49,2,2,0,0,1,.07-.54,2.09,2.09,0,0,1,.46-.93,1.15,1.15,0,0,1,.33-.29.66.66,0,0,1,.36-.11.42.42,0,0,1,.28.1.69.69,0,0,1,.17.3,1.84,1.84,0,0,1,.06.47,1.31,1.31,0,0,1,0,.28.48.48,0,0,1-.07.3,1.71,1.71,0,0,1-.09.3.73.73,0,0,1-.09.26l-.62,1.79v.09a.27.27,0,0,1-.07.08l-.2.11h0a.09.09,0,0,1,0-.07,0,0,0,0,1,0-.05h0Zm.44-1.51a.66.66,0,0,0,0-.28.34.34,0,0,0-.11-.18.22.22,0,0,0-.17-.07.41.41,0,0,0-.22.07,1.24,1.24,0,0,0-.22.18,2.33,2.33,0,0,0-.17.26,2.83,2.83,0,0,0-.11.31,1.93,1.93,0,0,0,0,.34,1.31,1.31,0,0,0,0,.28.72.72,0,0,0,.11.19.27.27,0,0,0,.17.06.41.41,0,0,0,.22-.07,1,1,0,0,0,.22-.18,1.45,1.45,0,0,0,.17-.26,1.33,1.33,0,0,0,.1-.34,1.61,1.61,0,0,0,0-.31Z"/><path class="cls-9" d="M169.91,214.8a.58.58,0,0,0,.05.14.22.22,0,0,0,.09.1.25.25,0,0,0,.17,0,.85.85,0,0,0,.26-.11,1,1,0,0,0,.2-.15,1.24,1.24,0,0,0,.17-.23,1.59,1.59,0,0,0,.12-.27.92.92,0,0,0,0-.33.61.61,0,0,0,0-.27.22.22,0,0,0-.11-.12.25.25,0,0,0-.17,0l-.21.09-.29.17m-.06,0a.11.11,0,0,1,0-.08v-.29a.17.17,0,0,1,0-.1l.62-1.39-1,.58m-.06,0a.11.11,0,0,1,0-.08v-.19a.24.24,0,0,1,0-.12.16.16,0,0,1,.06-.08l1.36-.79a0,0,0,0,1,.07,0v.38l-.05.11-.61,1.37a.75.75,0,0,1,.32-.1.31.31,0,0,1,.24.08.4.4,0,0,1,.16.24,1.52,1.52,0,0,1,.06.42,1.88,1.88,0,0,1-.07.53,1.82,1.82,0,0,1-.46.85,1.4,1.4,0,0,1-.33.27,1,1,0,0,1-.4.15.45.45,0,0,1-.28-.06.47.47,0,0,1-.16-.21.81.81,0,0,1,0-.31.14.14,0,0,1,0-.09.09.09,0,0,1,0-.07l.16-.09h.06a.05.05,0,0,1,.08,0,0,0,0,0,1,0,0Z"/><path class="cls-2" d="M167.9,223.93l20.4-11.82a.25.25,0,0,1,.42.21.9.9,0,0,1-.42.69l-20.4,11.83a.26.26,0,0,1-.42-.22A.9.9,0,0,1,167.9,223.93Z"/><path class="cls-2" d="M167.9,210.29l4.57-2.65c.23-.13.42,0,.42.21a.92.92,0,0,1-.42.7l-4.57,2.65c-.23.13-.42,0-.42-.21A.92.92,0,0,1,167.9,210.29Z"/><path class="cls-3" d="M198.16,179.18a2.67,2.67,0,0,1,2.69-.2l-2.69,7.26Z"/><path class="cls-11" d="M195.47,182.09a8.08,8.08,0,0,1,2.69-2.91v7.06Z"/><path class="cls-11" d="M193.81,186.57a14.33,14.33,0,0,1,1.66-4.48l2.69,4.15Z"/><path class="cls-19" d="M195.47,182.09a14.33,14.33,0,0,0-1.66,4.48l4.35-.33v-7.06A8.08,8.08,0,0,0,195.47,182.09Z"/><path class="cls-3" d="M200.85,179a3.78,3.78,0,0,1,1.67,2.56l-4.36,4.7Z"/><path class="cls-3" d="M193.81,190.93a8.32,8.32,0,0,1-.23-2.05,11.91,11.91,0,0,1,.23-2.31l4.35-.33Z"/><path class="cls-3" d="M202.52,185.9a13.92,13.92,0,0,1-1.67,4.49l-2.69-4.15Z"/><path class="cls-3" d="M198.16,193.29a2.67,2.67,0,0,1-2.69.2l2.69-7.25Z"/><path class="cls-3" d="M193.81,190.93l4.35-4.69-2.69,7.25A3.77,3.77,0,0,1,193.81,190.93Z"/><path class="cls-3" d="M202.52,181.54a8.32,8.32,0,0,1,.23,2.05,11.91,11.91,0,0,1-.23,2.31l-4.36.34Z"/><path class="cls-3" d="M200.85,190.39a7.89,7.89,0,0,1-2.69,2.9v-7Z"/><path class="cls-19" d="M195.88,196.89l4.57-2.65c.23-.13.42,0,.42.21a.92.92,0,0,1-.42.7l-4.57,2.65c-.23.13-.42,0-.42-.21A.92.92,0,0,1,195.88,196.89Z"/><path class="cls-2" d="M194.87,200.21l6.59-3.82a.25.25,0,0,1,.42.21.9.9,0,0,1-.42.69l-6.59,3.83a.26.26,0,0,1-.42-.22A.9.9,0,0,1,194.87,200.21Z"/><path class="cls-2" d="M194.87,202.94l6.59-3.82a.25.25,0,0,1,.42.21.92.92,0,0,1-.42.7l-6.59,3.82c-.23.13-.42,0-.42-.21A.9.9,0,0,1,194.87,202.94Z"/><path class="cls-2" d="M194.87,205.67l6.59-3.82c.23-.13.42,0,.42.21a.92.92,0,0,1-.42.7l-6.59,3.82c-.23.13-.42,0-.42-.21A.92.92,0,0,1,194.87,205.67Z"/><path class="cls-3" d="M214.69,169.61a2.67,2.67,0,0,1,2.69-.2l-2.69,7.25Z"/><path class="cls-11" d="M212,172.51a7.89,7.89,0,0,1,2.69-2.9v7Z"/><path class="cls-11" d="M210.33,177a13.92,13.92,0,0,1,1.67-4.49l2.69,4.15Z"/><path class="cls-3" d="M217.38,169.41a3.78,3.78,0,0,1,1.67,2.56l-4.36,4.69Z"/><path class="cls-11" d="M210.33,181.36a9.4,9.4,0,0,1-.22-2.05,12.73,12.73,0,0,1,.22-2.31l4.36-.34Z"/><path class="cls-3" d="M219.05,176.33a14.35,14.35,0,0,1-1.67,4.48l-2.69-4.15Z"/><path class="cls-3" d="M214.69,183.72a2.67,2.67,0,0,1-2.69.2l2.69-7.26Z"/><path class="cls-11" d="M210.33,181.36l4.36-4.7L212,183.92A3.78,3.78,0,0,1,210.33,181.36Z"/><path class="cls-19" d="M212,172.51a13.92,13.92,0,0,0-1.67,4.49,12.73,12.73,0,0,0-.22,2.31,9.4,9.4,0,0,0,.22,2.05,3.78,3.78,0,0,0,1.67,2.56l2.69-7.26v-7A7.9,7.9,0,0,0,212,172.51Z"/><path class="cls-3" d="M219.05,172a9.4,9.4,0,0,1,.22,2.05,12.73,12.73,0,0,1-.22,2.31l-4.36.33Z"/><path class="cls-3" d="M217.38,180.81a8,8,0,0,1-2.69,2.91v-7.06Z"/><path class="cls-19" d="M212.4,187.35l4.6-2.65c.24-.14.42,0,.42.21a.9.9,0,0,1-.42.7l-4.57,2.65c-.23.13-.42,0-.42-.21A.9.9,0,0,1,212.4,187.35Z"/><path class="cls-2" d="M211.39,190.67l6.59-3.82a.25.25,0,0,1,.42.21.9.9,0,0,1-.42.69l-6.59,3.83a.25.25,0,0,1-.41-.22A.89.89,0,0,1,211.39,190.67Z"/><path class="cls-2" d="M211.39,193.4l6.59-3.82a.25.25,0,0,1,.42.21.92.92,0,0,1-.42.7l-6.59,3.82c-.23.13-.41,0-.41-.21A.87.87,0,0,1,211.39,193.4Z"/><path class="cls-2" d="M211.39,196.13l6.59-3.82c.23-.13.42,0,.42.21a.92.92,0,0,1-.42.7L211.39,197c-.23.13-.41,0-.41-.21A.91.91,0,0,1,211.39,196.13Z"/></g><g id="Glass"><path class="cls-3" d="M214.6,264.21a7.76,7.76,0,0,0-3.3-6.2,2.49,2.49,0,0,0-2.45-.34h0c-3.89,1.95-31.21,19.47-33,20.34h0a1.22,1.22,0,0,0-.56,1.12,4,4,0,0,0,1.67,3.13,1.26,1.26,0,0,0,1.24.16h0c2.77-1.53,29.73-13,35.25-16h0A2.49,2.49,0,0,0,214.6,264.21Z"/><path class="cls-21" d="M213.53,260.43A7.21,7.21,0,0,0,211.3,258a2.47,2.47,0,0,0-2.44-.34h-.08c-3.55,1.82-23.89,14.79-30.73,19H178l-.27.17-.09.05-.15.09-.19.11h0c-.73.44-1.21.73-1.4.83h0l-.17.12a1.39,1.39,0,0,0-.39,1v.55a.42.42,0,0,0,0,.24c.05.08,0,.12,0,.19a2,2,0,0,0,.08.22l.06.17h0Z"/><path class="cls-19" d="M177,282.27a3.9,3.9,0,0,1-1.66-3.11c0-1.13.84-1.55,1.8-1a3.86,3.86,0,0,1,1.65,3.11C178.73,282.43,177.92,282.86,177,282.27Z"/><path class="cls-7" d="M168.8,283a3,3,0,0,0,1.28,2.39.93.93,0,0,0,.95.12h0l6.61-3.52h0a1,1,0,0,0,.42-.86,3,3,0,0,0-1.28-2.39.93.93,0,0,0-.95-.12h0l-6.61,3.51h0A1,1,0,0,0,168.8,283Z"/><path class="cls-8" d="M169.23,282.15a1,1,0,0,0-.43.87,2.66,2.66,0,0,0,.2,1l8.53-4.55a2.57,2.57,0,0,0-.74-.73.93.93,0,0,0-.95-.12l-6.61,3.51Z"/><path class="cls-3" d="M177.28,288.88c0-4.23-2.8-8.47-8.39-11.7-11.2-6.46-29.35-6.46-40.54,0-5.6,3.23-8.4,7.47-8.4,11.7h0v7.81c0,4.23,2.8,8.47,8.4,11.7,11.19,6.46,29.34,6.46,40.54,0,5.59-3.23,8.39-7.47,8.39-11.7v-7.81Zm-47.55-9.3c5-2.88,11.71-4.47,18.89-4.47s13.88,1.59,18.88,4.47c4.52,2.61,7,5.92,7,9.31s-2.49,6.69-7,9.3c-5,2.88-11.7,4.47-18.88,4.47s-13.89-1.59-18.89-4.47c-4.52-2.61-7-5.92-7-9.3s2.48-6.7,7-9.31Z"/><path class="cls-22" d="M128.35,300.59c11.19,6.46,29.34,6.46,40.53,0s11.2-16.94,0-23.41-29.34-6.46-40.53,0S117.15,294.12,128.35,300.59Zm-5.63-11.7c0-3.39,2.49-6.7,7-9.31,5-2.88,11.71-4.47,18.89-4.47s13.88,1.59,18.88,4.47c4.52,2.61,7,5.92,7,9.31s-2.49,6.69-7,9.3c-5,2.88-11.71,4.47-18.88,4.47s-13.89-1.59-18.89-4.47c-4.51-2.61-7-5.92-7-9.3Z"/><path class="cls-11" d="M122.72,288.88a7.71,7.71,0,0,0,1.12,3.91,15.6,15.6,0,0,1,5.89-5.4c5-2.89,11.71-4.48,18.89-4.48s13.88,1.59,18.88,4.48a15.71,15.71,0,0,1,5.9,5.4,7.8,7.8,0,0,0,1.11-3.91c0-3.38-2.49-6.69-7-9.3-5-2.88-11.71-4.47-18.88-4.47s-13.89,1.59-18.89,4.47C125.21,282.19,122.72,285.5,122.72,288.88Z"/><path class="cls-3" d="M122.72,288.88a7.71,7.71,0,0,0,1.12,3.91,15.6,15.6,0,0,1,5.89-5.4c5-2.89,11.71-4.48,18.89-4.48s13.88,1.59,18.88,4.48a15.71,15.71,0,0,1,5.9,5.4,7.8,7.8,0,0,0,1.11-3.91c0-3.38-2.49-6.69-7-9.3-5-2.88-11.71-4.47-18.88-4.47s-13.89,1.59-18.89,4.47C125.21,282.19,122.72,285.5,122.72,288.88Z"/><path class="cls-23" d="M129.73,283.12c5-2.89,11.71-4.48,18.89-4.48s13.88,1.59,18.88,4.48c3.73,2.15,6.07,4.77,6.78,7.53-.71,2.76-3.05,5.38-6.78,7.54-5,2.88-11.71,4.47-18.88,4.47s-13.89-1.59-18.89-4.47c-3.73-2.16-6.07-4.78-6.78-7.54C123.66,287.89,126,285.27,129.73,283.12Z"/><path class="cls-21" d="M141.86,305v7.8a37.7,37.7,0,0,1-13.51-4.38c-5.6-3.23-8.4-7.47-8.4-11.7v-7.81a10,10,0,0,1,.34-2.55h0c-1.36,5,1.33,10.37,8,14.26A37.61,37.61,0,0,0,141.86,305Z"/></g><g id="Character"><path class="cls-8" d="M278.48,257.34c.34.14.41.79.44,2.09,0,1,.19,2.69-1,3a3.57,3.57,0,0,1-3.55-.84c-.89-1.17-1.49-2.2-2.77-3.64-1.11-1.24-2.31-2.41-2.74-4.13-.38-1.56,0-2.22,1.05-2.65,1.47-.59,3.7,1.49,4.83,1.83S278.14,257.2,278.48,257.34Z"/><path class="cls-24" d="M278.51,256.14v1.59a3.88,3.88,0,0,1-4,0c-.06-.16-.36-2.29-.36-2.29Z"/><path class="cls-8" d="M265.39,266.22a26.18,26.18,0,0,1,.65,2.61,7,7,0,0,1,.06,3.29c-.35.72-1.68,1.16-3.71,1.09a11.91,11.91,0,0,0-4.82,1.57,12.78,12.78,0,0,1-6,.82c-1.81-.26-3.66-1.35-3.94-2.11s.13-1.53,4.44-3.25c0,0,6-1.8,8.1-4Z"/><path class="cls-24" d="M265.43,264.5v1.85c0,.67-.83,1.66-2.89,1.54-1.45-.08-2.45-.49-2.37-1.68v-1.72Z"/><path class="cls-7" d="M280,235.05a42.89,42.89,0,0,0-1.69-8.33s.73-7.14,1.15-13.91c.46-7.31.89-11.08-.55-21.64,0,0-22.43-2-23,6.44s.26,30,.45,33.75.77,7,1.4,13.07,2.43,20.06,2.43,20.06a5.57,5.57,0,0,0,5.26,0s2.05-16.89,2-21.18a36.51,36.51,0,0,0-1.42-9.4l1.14-13c.53-6.06,1-9,1.17-11.61l.51-.24s.28,10.48.48,14.21.71,7.3,1.63,14.23c.79,6,3.29,18.75,3.29,18.75,2.66,1.52,4.31-.09,4.31-.09S280.63,240.26,280,235.05Z"/><path class="cls-8" d="M268.29,209.28s5.79-2.69,8.72-5.18a18.93,18.93,0,0,1-6.28,5.28s-1.54,13-1.53,12.72l-.43-12.83Z"/><polygon class="cls-24" points="264.27 161.03 265.14 168.78 272.46 168.41 271.64 159.37 264.27 161.03"/><path class="cls-7" d="M275.21,164c2.73-.13,4.11.28,5.33,2.63s1.7,9.36,2.13,13,.53,6.17-1,6.54a63.32,63.32,0,0,1-7.28.53Z"/><path class="cls-9" d="M279.81,168a5.6,5.6,0,0,0-5.91-4c-.62.1-1.23.2-1.81.31-.32,1.3-3.89,2.11-7.3,1.31-1,.27-4.41.9-5.27,1.19-2.45.81-3.46,3.22-3.84,11.22,0,0,.19,18.1.1,21.7a29.44,29.44,0,0,0,15.93,1.94c7.34-1.43,8.29-4.44,8.29-4.44l-1.09-8.29S280.7,172.91,279.81,168Z"/><path class="cls-7" d="M264.56,163.59l.05.48a11,11,0,0,0,4.49,0c2.38-.53,2.86-1.2,2.86-1.2v-.55s.59-.22.9.69a8.38,8.38,0,0,1,.34,1.11s.28,1.67-2.51,2.51a8.63,8.63,0,0,1-7-.76l-1.1.23s1-2.18,1.24-2.62a.71.71,0,0,1,.68-.38Z"/><polygon class="cls-9" points="242.23 155.28 227.73 162.85 234.94 182.55 248.47 174.97 242.23 155.28"/><polygon class="cls-25" points="241.57 157.21 229.4 163.56 235.78 180.5 247.13 174.14 241.57 157.21"/><path class="cls-10" d="M239,159l-.23-.6c-.13-.34-1.15-.14-2.27.44l-2.14,1.1c-1.12.58-1.92,1.32-1.79,1.65l.24.61Z"/><path class="cls-11" d="M238.77,156.63c-.08-.21-.52-.18-1,.07l-.84.46s-.51-1.3-2.44-.4-1.49,2.4-1.49,2.4l-.89.5c-.49.27-.84.66-.78.87l.1.38,7.47-3.9Z"/><path class="cls-11" d="M238,157.5c-.69.34-1,.51-.77,1s.44,1,.44,1l-3.3,1.73s-.28-.75-.4-1-.36-.42-.88-.15l-.2-.2,5.21-2.66Z"/><path class="cls-15" d="M238,157.5c-.69.34-1,.51-.77,1s.44,1,.44,1l-3.3,1.73s-.28-.75-.4-1-.36-.42-.88-.15l-.2-.2,5.21-2.66Z"/><path class="cls-11" d="M239.14,159.07l-.23-.6c-.13-.34-1.14-.14-2.26.44L234.5,160c-1.11.57-1.92,1.31-1.79,1.64l.24.61Z"/><path class="cls-24" d="M259.52,166.81c-3.35.29-4.77.9-7.29,5.43-2.72,4.92-8,13.82-8.63,14.94a5.94,5.94,0,0,0-.3,5.38c.74,1.34,3.11,1.95,5.79-1.07,3.19-3.61,9.12-12.41,9.12-12.41S263.25,172.43,259.52,166.81Z"/><path class="cls-24" d="M244.68,193.59c-2.56-.31-8.56-8.44-10.26-11.1a19.09,19.09,0,0,0-5.19-5.48c-2.72-2-2.32-5.09-1.14-7.91.41-1,1.8-.34,1.8-.34l.49,1.34.85,2.32c.58.53.91.71,1,.55s-.43-1.55-.42-2.85c0-1.57,1.12-.54,1.44,0a18.78,18.78,0,0,1,1.16,2.59c.55,1.4.32,2.82,1,3.77S245,186,245,186Z"/><path class="cls-7" d="M260.16,166.63a7.16,7.16,0,0,0-6.35,2.73c-1.89,2.45-9.44,15.79-9.44,15.79l-4.24-3.8a7.34,7.34,0,0,0-3.26,4.61,47.54,47.54,0,0,0,3.84,5.21c1.79,2,3.79,3.33,5.43,2.72s3.31-1.9,6.84-6.81,7.38-10.71,7.38-10.71S262.79,170.7,260.16,166.63Z"/><path class="cls-26" d="M259.12,151.55s-1.83,2.77-1.62,3a5.83,5.83,0,0,0,1.55.52Z"/><path class="cls-8" d="M260,153.33a2.18,2.18,0,1,1,2.18-2.18h0a2.17,2.17,0,0,1-2.17,2.17Zm0-3.87a1.7,1.7,0,1,0,1.69,1.71h0A1.71,1.71,0,0,0,260,149.46Z"/><path class="cls-24" d="M264.19,143.89c-3.7.78-4.76,2.4-5.11,8.27-.37,6.13.26,8.06,1.07,8.89.54.55,3.56.66,5.09.23,1.91-.52,6.22-2.05,8.24-5.13,2.37-3.63,3-8.55.45-10.57C270.35,142.74,265.69,143.57,264.19,143.89Z"/><path class="cls-26" d="M264.32,161.46l-.17-1.13a7.34,7.34,0,0,1-3.79.86A9.47,9.47,0,0,0,264.32,161.46Z"/><polygon class="cls-8" points="258 150.7 264.57 151.55 264.31 152.01 258 151.2 258 150.7"/><path class="cls-8" d="M258.45,146.26a2.32,2.32,0,0,0,.83,0,1.32,1.32,0,0,0,.45,1.54,1.91,1.91,0,0,0,1.66.22,1.56,1.56,0,0,0-.18,1.14,1.84,1.84,0,0,0,1.91,1.38c0,.86.05,1.7,1,2.09,0,0,.58-2.27,2.49-2s2.19,2.74,1,4.22-2.32.93-2.34.92.15.78.19.92a7,7,0,0,0,.49,1.24,6,6,0,0,0,1.73,2,4.25,4.25,0,0,0,3.47,1,3.74,3.74,0,0,0,2.52-2,2.18,2.18,0,0,1,.42-.74,2.46,2.46,0,0,1,.94-.4,2.77,2.77,0,0,0,1.73-3.51,2.83,2.83,0,0,0-.17-.4,2.55,2.55,0,0,0,1.86-3.08,2.63,2.63,0,0,0-.86-1.35,3,3,0,0,0,1.31-3.3,3.08,3.08,0,0,0-2.18-2.09c-.75-.22-.46-.33-.69-1.07a2.8,2.8,0,0,0-.86-1.28,2.75,2.75,0,0,0-2.55-.47,2.58,2.58,0,0,0-1.84-2,2.65,2.65,0,0,0-1.31-.05c-.3.08-.93.37-1.05.66-.39-.38-.51-.89-1-1.23a2.8,2.8,0,0,0-1.67-.56,2.86,2.86,0,0,0-2.45,1.44,3.45,3.45,0,0,0-2.58-1.09,2.82,2.82,0,0,0-2.35,1.44,2.41,2.41,0,0,0,.31,2.69,2.72,2.72,0,0,0-1.42,1.23,1.71,1.71,0,0,0,.2,1.93,1.49,1.49,0,0,0,.72.54Z"/><path class="cls-8" d="M264.05,153.87l.07-2.56a1.28,1.28,0,1,0-.07,2.56Z"/></g><path class="cls-27" d="M263.87,177.21l.77-.36c.07,1.37.12,2.73.18,4.09a2,2,0,0,1-.8,1.83c-.6.32-1.22.59-1.84.88s-1.56.9-2.29.28a1.92,1.92,0,0,1,.58-2.52,24.26,24.26,0,0,1,2.59-1.19,8.88,8.88,0,0,1,0,.89c-.76.47-1.58.83-2.34,1.26a.88.88,0,0,0-.5.67c0,.73,1,.3,1.34.13.67-.4,1.38-.73,2.05-1.12a.8.8,0,0,0,.39-.76c0-1.36-.11-2.71-.16-4.07Z"/><path class="cls-27" d="M268.45,177c.25-.13.51-.25.77-.36.09,1.64.12,3.27.19,4.91-.25.14-.51.27-.77.39-.08-1.65-.13-3.29-.19-4.94Z"/><path class="cls-27" d="M273.28,176.84l.76-.35c.08,1.6.13,3.19.2,4.78a4.73,4.73,0,0,1-.79.37C273.39,180,273.29,178.44,273.28,176.84Z"/><path class="cls-27" d="M275.43,179.73a2.47,2.47,0,0,1,.72-1.22c0,.35,0,.69.05,1A1.85,1.85,0,0,1,275.43,179.73Zm1.22-1.56a6.2,6.2,0,0,1,.89.37c-.26.28-.53.55-.82.81,0-.39-.06-.79-.07-1.18Zm-.46-1.75h0a4.73,4.73,0,0,0-.12.92,4.47,4.47,0,0,0-1.3,2.08.91.91,0,0,0,.24.93,1.71,1.71,0,0,0,1.22,0l0,.51c-1.49.79-3,1.56-4.47,2.34,0,.29,0,.58,0,.87,2.21-1.13,4.4-2.29,6.62-3.41a9.16,9.16,0,0,0-.05-1.17c-.45.24-.88.52-1.34.74a.46.46,0,0,1-.44,0c.41-.49,1.18-.57,1.47-1.18a1.14,1.14,0,0,0-.23-1.25A9.15,9.15,0,0,0,276.19,176.42Z"/><path class="cls-27" d="M266,179a1.66,1.66,0,0,1,1.67.53,1.87,1.87,0,0,1,.59,2c-.12.35-.49.5-.8.65-.82.4-1.62.84-2.45,1.23,0-.29,0-.59-.05-.89.82-.44,1.65-.86,2.48-1.27a2.77,2.77,0,0,0,.45-.31c-.05-.1-.11-.19-.16-.28-.6.17-1.11.57-1.72.73a.51.51,0,0,1-.63-.33,1.65,1.65,0,0,1,.62-2Zm-.19,1.52h0A9.2,9.2,0,0,0,267,180c-.23-.07-.5-.22-.74-.08A.85.85,0,0,0,265.77,180.56Z"/><path class="cls-27" d="M269.94,182.42a7,7,0,0,1,1.48-1.79c.29.25.59.5.87.77a8.26,8.26,0,0,1-1.9,1,.77.77,0,0,1-.45,0Zm1-3.18h0a6.42,6.42,0,0,0-.12.88,4,4,0,0,0-1.33,2.39.78.78,0,0,0,1,.71,10.61,10.61,0,0,0,1.66-.81c.31-.17.68-.38.75-.76s.07-.79-.26-1A10.33,10.33,0,0,0,270.91,179.24Z"/></svg>