<svg id="Layer_1" data-name="Layer 1" xmlns="http://www.w3.org/2000/svg" viewBox="0 0 192 70"><defs><style>.cls-1{fill:#fff;fill-rule:evenodd;}</style></defs><path class="cls-1" d="M33.46,24.64c1.17-.5,2.33-1,3.51-1.46.1,6.13.08,12.26.1,18.4,0,3-1,6.47-3.9,8.1-2.74,1.32-5.58,2.44-8.4,3.6-3.07,1.58-7.18,3.78-10.38.86-1.93-3.64-.82-9.07,3.05-11.2a104.84,104.84,0,0,1,11.84-4.89,26.68,26.68,0,0,1-.06,4C25.72,44,22,45.49,18.51,47.31a4,4,0,0,0-2.39,2.9c.06,3.28,4.43,1.54,6,.82,3.1-1.66,6.33-3.05,9.44-4.69A3.52,3.52,0,0,0,33.43,43c.06-6.11,0-12.21,0-18.32Z"/><path class="cls-1" d="M54.11,24.6a29.69,29.69,0,0,1,3.49-1.48c.13,7.36,0,14.72,0,22.09-1.14.59-2.32,1.12-3.52,1.6-.09-7.4,0-14.81,0-22.21Z"/><path class="cls-1" d="M75.83,24.62c1.14-.51,2.3-1,3.49-1.42.09,7.17,0,14.33.05,21.49a21.26,21.26,0,0,1-3.61,1.53c0-7.2-.15-14.4.07-21.6Z"/><path class="cls-1" d="M85,38c.39-2.16,1.95-3.83,3.43-5.37.13,1.56.08,3.11.06,4.66A8.42,8.42,0,0,1,85,38Zm5.75-6.82A29.65,29.65,0,0,1,94.68,33q-1.83,1.81-3.8,3.48c-.14-1.75-.13-3.52-.12-5.28ZM89,23.25h0a21.74,21.74,0,0,0-.73,4.1c-2.71,2.49-5.2,5.48-6.17,9.11-.32,1.43-.38,3.26.92,4.25a7.66,7.66,0,0,0,5.48,0q0,1.18,0,2.34C81.65,46.31,74.8,49.52,68,52.79c0,1.29-.06,2.58,0,3.88C78.13,52,88.19,47.14,98.36,42.5a40,40,0,0,0,0-5.25c-2.08,1-4.06,2.16-6.15,3.1a2.13,2.13,0,0,1-2,.07c1.94-2.13,5.42-2.33,6.83-5.05.6-1.81.82-4.27-.82-5.62C93.92,27.52,91.8,24.89,89,23.25Z"/><path class="cls-1" d="M42.54,33.23c2.75-1,5.51.81,7.42,2.67a8.44,8.44,0,0,1,2.33,8.93C51.66,46.39,50,47,48.58,47.61c-3.78,1.65-7.44,3.51-11.24,5.1-.07-1.32-.07-2.64-.06-4,3.73-1.86,7.54-3.58,11.34-5.31a11.24,11.24,0,0,0,2.09-1.3c-.21-.44-.44-.87-.67-1.29-2.74.69-5.11,2.38-7.87,3a2.3,2.3,0,0,1-2.76-1.61c-1-3.17-.16-7.5,3.13-9Zm-1.11,6.82h0A43.65,43.65,0,0,0,47,37.56c-1-.38-2.18-1.1-3.28-.49A3.79,3.79,0,0,0,41.43,40.05Z"/><path class="cls-1" d="M59.85,49.12c1.51-3.2,4.53-5.3,6.95-7.79,1.28,1.18,2.56,2.37,3.77,3.62a36.49,36.49,0,0,1-8.71,4.21,3.29,3.29,0,0,1-2,0ZM64.78,35h0a24,24,0,0,0-.71,3.93c-2.88,2.93-6.11,6.23-6.38,10.51-.26,2.25,2.26,3.93,4.38,3.36a47.34,47.34,0,0,0,7.63-3.32c1.44-.75,3.13-1.61,3.51-3.31.18-1.59.46-3.53-1-4.67C69.83,39.25,67.62,36.71,64.78,35Z"/><path class="cls-1" d="M139.14,48.06c-3.48,1.28-6.59,3.06-10.44,3.83-8.41,2.26-10.71-1-2.86-10.13C137.28,30,151.38,21.7,163.75,16.35c7.32-2.59,11.55-1.71,9.09,3.92-2.92,5.83-8.39,10-12.53,14.33l.36.19c4.68-4.29,10.67-8.82,14.66-14.88,5.06-7.33,3.48-12.52-10.6-7.76-8.35,2.74-16.39,7.28-25,13.22a89.81,89.81,0,0,0-18,15.79c-10.76,12.56-5.42,16.28,3.67,13.57C130.7,53.07,135.67,51.15,139.14,48.06Z"/><path class="cls-1" d="M118.21,45.82l-.26.41c-1.37,1.05-2.55,1.91-4.17,3.22-5.31,4.21-3.77,7.89,8.26,7.89,14.6-1,29-5.92,40.67-11.64,7.51-4.31,9.61-7.42,6.48-9.49-2.69-1.51-5.73-1.29-8.52-1.42l.68-.62c3-.07,14.56-.13,15.09,3.75.31,2.22-2,5.83-11.29,10.47a127.55,127.55,0,0,1-21.26,8.25,99.25,99.25,0,0,1-26.31,4.08c-17-.46-13.21-6.43-6.86-11A30.77,30.77,0,0,1,118.21,45.82Z"/></svg>